# xmcd
#
# Track frame offsets:
#  150
#  13416
#  28211
#  46402
#  63255
#  78893
#  90724
#  109702
#  128346
#  142685
#  159619
#  171889
#
# Disc length: 2572 seconds
#
# Revision: 0
# Processed by: cddbd v1.5.2PL0 Copyright (c) Steve Scherf et al.
# Submitted via: Collectorz.com_Music_Collector 6.11
#
DISCID=910a0a0c
DTITLE=A. G. Weinberger - Nashville Calling
DYEAR=2006
DGENRE=Blues
TTITLE0=Your Good Man's Gone
TTITLE1=Love Doctor
TTITLE2=Break The Man
TTITLE3=Down On You
TTITLE4=Don't Kill The Melody In Me
TTITLE5=Not No More
TTITLE6=Point Of No Return
TTITLE7=The Pain Of Losing You
TTITLE8=Elvis Beatles Dylan Stones
TTITLE9=Nothing But Blue
TTITLE10=Lying In Bed
TTITLE11=Bring A Little Smile To Me
EXTD=
EXTT0=
EXTT1=
EXTT2=
EXTT3=
EXTT4=
EXTT5=
EXTT6=
EXTT7=
EXTT8=
EXTT9=
EXTT10=
EXTT11=
PLAYORDER=
